<svg width="16" height="16" viewBox="0 0 16 16" fill="none" xmlns="http://www.w3.org/2000/svg">
<rect x="0.15" y="0.15" width="15.7" height="15.7" rx="3.85" fill="url(#paint0_linear_4738_4474)"/>
<rect x="0.15" y="0.15" width="15.7" height="15.7" rx="3.85" stroke="#E3E3E3" stroke-width="0.3"/>
<path d="M6.66449 13.2734C5.26449 13.2734 4.25 12.2589 4.25 10.9806C4.25 9.4183 5.52826 8.50525 7.09057 7.59221L8.18622 6.92265C8.75434 6.59801 9.07898 6.4154 9.32245 6.13135C9.6268 5.78642 9.74854 5.40091 9.74854 4.79222C9.74854 3.87918 9.30216 3.08787 8.32825 3.08787C7.13115 3.08787 6.40072 4.08207 6.11666 5.36033C6.01521 5.827 5.54855 6.2125 5.00072 6.25308C4.63551 6.29366 4.47319 6.13135 4.47319 5.88787C4.47319 4.93425 6.38043 2.72266 8.85579 2.72266C10.2761 2.72266 11.1485 3.49367 11.1485 4.91396C11.1485 5.72555 11.108 6.27337 11.0877 7.63279L11.0268 10.1893C10.9862 11.3458 11.2906 11.8734 11.8181 11.8734C12.021 11.8734 12.2645 11.7516 12.508 11.5284C12.9543 11.1632 12.8123 11.6502 12.4065 12.198C12.021 12.7255 11.5138 13.2734 10.9254 13.2734C10.3167 13.2734 10.0529 12.7052 9.99202 12.0154C9.93115 11.4067 9.93115 11.1226 9.80941 11.1226C9.72825 11.1226 9.58622 11.285 9.34274 11.6502C8.59202 12.7458 7.71956 13.2734 6.66449 13.2734ZM7.45579 12.5226C8.10507 12.5226 8.73405 12.1777 9.18042 11.4879C9.52535 10.9603 9.74854 10.0473 9.74854 8.28207V7.0241C9.74854 6.59801 9.72825 6.45598 9.58622 6.45598C9.40361 6.45598 8.79492 6.84149 8.00362 7.36902C6.42101 8.40381 5.69058 9.35743 5.69058 10.5342C5.69058 11.711 6.42101 12.5226 7.45579 12.5226Z" fill="black"/>
<defs>
<linearGradient id="paint0_linear_4738_4474" x1="8" y1="0" x2="8" y2="16" gradientUnits="userSpaceOnUse">
<stop stop-color="#E3E3E3"/>
<stop offset="1" stop-color="white"/>
</linearGradient>
</defs>
</svg>
