<svg width="48" height="48" viewBox="0 0 48 48" fill="none" xmlns="http://www.w3.org/2000/svg">
<rect x="0.15" y="0.15" width="47.7" height="47.7" rx="8.85" fill="url(#paint0_linear_4738_4494)"/>
<rect x="0.15" y="0.15" width="47.7" height="47.7" rx="8.85" stroke="#E3E3E3" stroke-width="0.3"/>
<path d="M19.9974 39.824C15.7974 39.824 12.7539 36.7805 12.7539 32.9457C12.7539 28.2588 16.5887 25.5197 21.2756 22.7805L24.5626 20.7719C26.2669 19.7979 27.2408 19.2501 27.9713 18.3979C28.8843 17.3632 29.2495 16.2066 29.2495 14.3806C29.2495 11.6414 27.9104 9.26753 24.9887 9.26753C21.3974 9.26753 19.2061 12.2501 18.3539 16.0849C18.0495 17.4849 16.6496 18.6414 15.0061 18.7632C13.9104 18.8849 13.4235 18.3979 13.4235 17.6675C13.4235 14.8066 19.1452 8.17188 26.5713 8.17188C30.8321 8.17188 33.4495 10.4849 33.4495 14.7458C33.4495 17.1806 33.3278 18.824 33.2669 22.9023L33.0843 30.5718C32.9626 34.0414 33.8756 35.624 35.4582 35.624C36.0669 35.624 36.7973 35.2588 37.5278 34.5892C38.8669 33.4936 38.4408 34.9544 37.2234 36.5979C36.0669 38.1805 34.5452 39.824 32.78 39.824C30.9539 39.824 30.1626 38.1196 29.98 36.0501C29.7973 34.224 29.7973 33.3718 29.4321 33.3718C29.1887 33.3718 28.7626 33.8588 28.0321 34.9544C25.78 38.2414 23.1626 39.824 19.9974 39.824ZM22.3713 37.5718C24.3191 37.5718 26.2061 36.537 27.5452 34.4675C28.58 32.8849 29.2495 30.1457 29.2495 24.8501V21.0762C29.2495 19.7979 29.1887 19.3719 28.7626 19.3719C28.2147 19.3719 26.3887 20.5284 24.0148 22.111C19.2669 25.2153 17.0756 28.0762 17.0756 31.6066C17.0756 35.137 19.2669 37.5718 22.3713 37.5718Z" fill="black"/>
<defs>
<linearGradient id="paint0_linear_4738_4494" x1="24" y1="0" x2="24" y2="48" gradientUnits="userSpaceOnUse">
<stop stop-color="#E3E3E3"/>
<stop offset="1" stop-color="white"/>
</linearGradient>
</defs>
</svg>
