<svg width="64" height="64" viewBox="0 0 64 64" fill="none" xmlns="http://www.w3.org/2000/svg">
<rect x="0.15" y="0.15" width="63.7" height="63.7" rx="10.85" fill="url(#paint0_linear_4738_4496)"/>
<rect x="0.15" y="0.15" width="63.7" height="63.7" rx="10.85" stroke="#E3E3E3" stroke-width="0.3"/>
<path d="M26.6619 53.0974C21.0619 53.0974 17.0039 49.0394 17.0039 43.9264C17.0039 37.6771 22.1169 34.0249 28.3662 30.3728L32.7488 27.6945C35.0213 26.396 36.3198 25.6655 37.2937 24.5293C38.5111 23.1496 38.9981 21.6076 38.9981 19.1728C38.9981 15.5206 37.2126 12.3554 33.3169 12.3554C28.5285 12.3554 25.6068 16.3322 24.4706 21.4452C24.0648 23.3119 22.1981 24.8539 20.0068 25.0162C18.5459 25.1786 17.8967 24.5293 17.8967 23.5554C17.8967 19.7409 25.5256 10.8945 35.4271 10.8945C41.1082 10.8945 44.5981 13.9786 44.5981 19.6597C44.5981 22.9061 44.4357 25.0974 44.3546 30.5351L44.1111 40.7611C43.9488 45.3872 45.1662 47.4974 47.2763 47.4974C48.0879 47.4974 49.0618 47.0104 50.0357 46.1177C51.8212 44.6568 51.2531 46.6046 49.6299 48.7959C48.0879 50.9061 46.0589 53.0974 43.7053 53.0974C41.2705 53.0974 40.2155 50.8249 39.972 48.0655C39.7285 45.6307 39.7285 44.4945 39.2415 44.4945C38.9169 44.4945 38.3488 45.1437 37.3749 46.6046C34.372 50.9872 30.8821 53.0974 26.6619 53.0974ZM29.8271 50.0945C32.4242 50.0945 34.9401 48.7148 36.7256 45.9553C38.1053 43.8452 38.9981 40.193 38.9981 33.1322V28.1003C38.9981 26.396 38.9169 25.8278 38.3488 25.8278C37.6184 25.8278 35.1836 27.3699 32.0184 29.48C25.6879 33.6191 22.7662 37.4336 22.7662 42.1408C22.7662 46.8481 25.6879 50.0945 29.8271 50.0945Z" fill="black"/>
<defs>
<linearGradient id="paint0_linear_4738_4496" x1="32" y1="0" x2="32" y2="64" gradientUnits="userSpaceOnUse">
<stop stop-color="#E3E3E3"/>
<stop offset="1" stop-color="white"/>
</linearGradient>
</defs>
</svg>
