<svg width="32" height="32" viewBox="0 0 32 32" fill="none" xmlns="http://www.w3.org/2000/svg">
<rect x="0.15" y="0.15" width="31.7" height="31.7" rx="5.85" fill="url(#paint0_linear_4738_4492)"/>
<rect x="0.15" y="0.15" width="31.7" height="31.7" rx="5.85" stroke="#E3E3E3" stroke-width="0.3"/>
<path d="M13.3309 26.5506C10.5309 26.5506 8.50195 24.5216 8.50195 21.9651C8.50195 18.8405 11.0585 17.0144 14.1831 15.1883L16.3744 13.8492C17.5106 13.1999 18.1599 12.8347 18.6469 12.2666C19.2556 11.5767 19.499 10.8057 19.499 9.58834C19.499 7.76226 18.6063 6.17965 16.6585 6.17965C14.2643 6.17965 12.8034 8.16806 12.2353 10.7246C12.0324 11.6579 11.099 12.4289 10.0034 12.5101C9.27297 12.5912 8.94833 12.2666 8.94833 11.7796C8.94833 9.8724 12.7628 5.44922 17.7135 5.44922C20.5541 5.44922 22.299 6.99125 22.299 9.83182C22.299 11.455 22.2179 12.5507 22.1773 15.2695L22.0556 20.3825C21.9744 22.6956 22.5831 23.7506 23.6382 23.7506C24.044 23.7506 24.5309 23.5072 25.0179 23.0608C25.9106 22.3303 25.6266 23.3043 24.815 24.3999C24.044 25.455 23.0295 26.5506 21.8527 26.5506C20.6353 26.5506 20.1077 25.4144 19.986 24.0347C19.8642 22.8173 19.8642 22.2492 19.6208 22.2492C19.4585 22.2492 19.1744 22.5738 18.6874 23.3043C17.186 25.4956 15.4411 26.5506 13.3309 26.5506ZM14.9135 25.0492C16.2121 25.0492 17.4701 24.3593 18.3628 22.9796C19.0527 21.9246 19.499 20.0985 19.499 16.568V14.0521C19.499 13.1999 19.4585 12.9159 19.1744 12.9159C18.8092 12.9159 17.5918 13.6869 16.0092 14.742C12.844 16.8115 11.3831 18.7188 11.3831 21.0724C11.3831 23.426 12.844 25.0492 14.9135 25.0492Z" fill="black"/>
<defs>
<linearGradient id="paint0_linear_4738_4492" x1="16" y1="0" x2="16" y2="32" gradientUnits="userSpaceOnUse">
<stop stop-color="#E3E3E3"/>
<stop offset="1" stop-color="white"/>
</linearGradient>
</defs>
</svg>
