<svg width="128" height="128" viewBox="0 0 128 128" fill="none" xmlns="http://www.w3.org/2000/svg">
<rect x="0.15" y="0.15" width="127.7" height="127.7" rx="14.85" fill="url(#paint0_linear_4738_4499)"/>
<rect x="0.15" y="0.15" width="127.7" height="127.7" rx="14.85" stroke="#E3E3E3" stroke-width="0.3"/>
<path d="M53.3237 106.195C42.1237 106.195 34.0078 98.0788 34.0078 87.8527C34.0078 75.3542 44.2339 68.0498 56.7324 60.7455L65.4976 55.389C70.0425 52.7919 72.6396 51.331 74.5874 49.0586C77.0222 46.2992 77.9961 43.2151 77.9961 38.3456C77.9961 31.0412 74.4251 24.7108 66.6338 24.7108C57.057 24.7108 51.2136 32.6644 48.9411 42.8905C48.1295 46.6238 44.3962 49.7078 40.0136 50.0325C37.0919 50.3571 35.7933 49.0586 35.7933 47.1108C35.7933 39.4818 51.0513 21.7891 70.8541 21.7891C82.2164 21.7891 89.1961 27.9572 89.1961 39.3195C89.1961 45.8122 88.8715 50.1948 88.7092 61.0701L88.2222 81.5223C87.8976 90.7744 90.3323 94.9947 94.5526 94.9947C96.1758 94.9947 98.1236 94.0208 100.071 92.2353C103.642 89.3136 102.506 93.2092 99.2599 97.5918C96.1758 101.812 92.1178 106.195 87.4106 106.195C82.5411 106.195 80.4309 101.65 79.944 96.131C79.457 91.2614 79.457 88.9889 78.4831 88.9889C77.8338 88.9889 76.6976 90.2875 74.7498 93.2092C68.744 101.974 61.7643 106.195 53.3237 106.195ZM59.6541 100.189C64.8483 100.189 69.8802 97.4295 73.4512 91.9107C76.2106 87.6904 77.9961 80.3861 77.9961 66.2643V56.2006C77.9961 52.7919 77.8338 51.6557 76.6976 51.6557C75.2367 51.6557 70.3672 54.7397 64.0367 58.96C51.3759 67.2383 45.5324 74.8672 45.5324 84.2817C45.5324 93.6962 51.3759 100.189 59.6541 100.189Z" fill="black"/>
<defs>
<linearGradient id="paint0_linear_4738_4499" x1="64" y1="0" x2="64" y2="128" gradientUnits="userSpaceOnUse">
<stop stop-color="#E3E3E3"/>
<stop offset="1" stop-color="white"/>
</linearGradient>
</defs>
</svg>
