<svg preserveAspectRatio="none" width="100%" height="100%" overflow="visible" style="display: block;" viewBox="0 0 321 12" fill="none" xmlns="http://www.w3.org/2000/svg">
<g id="Slider Track">
<path id="01 (Stroke)" d="M14 11C14 11.5523 13.5523 12 13 12C12.4477 12 12 11.5523 12 11L12 1C12 0.447715 12.4477 1.95703e-08 13 4.37115e-08C13.5523 6.78527e-08 14 0.447715 14 1L14 11Z" fill="var(--fill-0, #E2D4CF)"/>
<path id="02 (Stroke)" d="M50.875 9C50.875 9.55228 50.4273 10 49.875 10C49.3227 10 48.875 9.55228 48.875 9L48.875 3C48.875 2.44772 49.3227 2 49.875 2C50.4273 2 50.875 2.44772 50.875 3L50.875 9Z" fill="var(--fill-0, #E2D4CF)"/>
<path id="03 (Stroke)" d="M87.75 9C87.75 9.55228 87.3023 10 86.75 10C86.1977 10 85.75 9.55228 85.75 9L85.75 3C85.75 2.44772 86.1977 2 86.75 2C87.3023 2 87.75 2.44772 87.75 3L87.75 9Z" fill="var(--fill-0, #E2D4CF)"/>
<path id="04 (Stroke)" d="M124.625 9C124.625 9.55228 124.177 10 123.625 10C123.073 10 122.625 9.55228 122.625 9L122.625 3C122.625 2.44772 123.073 2 123.625 2C124.177 2 124.625 2.44772 124.625 3L124.625 9Z" fill="var(--fill-0, #E2D4CF)"/>
<path id="01 (Stroke)_2" d="M161.5 11C161.5 11.5523 161.052 12 160.5 12C159.948 12 159.5 11.5523 159.5 11L159.5 1C159.5 0.447715 159.948 6.32818e-08 160.5 8.74231e-08C161.052 1.11564e-07 161.5 0.447715 161.5 1L161.5 11Z" fill="var(--fill-0, #E2D4CF)"/>
<path id="06 (Stroke)" d="M198.375 9C198.375 9.55228 197.927 10 197.375 10C196.823 10 196.375 9.55228 196.375 9L196.375 3C196.375 2.44772 196.823 2 197.375 2C197.927 2 198.375 2.44772 198.375 3L198.375 9Z" fill="var(--fill-0, #E2D4CF)"/>
<path id="07 (Stroke)" d="M235.25 9C235.25 9.55228 234.802 10 234.25 10C233.698 10 233.25 9.55228 233.25 9L233.25 3C233.25 2.44772 233.698 2 234.25 2C234.802 2 235.25 2.44772 235.25 3L235.25 9Z" fill="var(--fill-0, #E2D4CF)"/>
<path id="08 (Stroke)" d="M272.125 9C272.125 9.55228 271.677 10 271.125 10C270.573 10 270.125 9.55228 270.125 9L270.125 3C270.125 2.44772 270.573 2 271.125 2C271.677 2 272.125 2.44772 272.125 3L272.125 9Z" fill="var(--fill-0, #E2D4CF)"/>
<path id="09 (Stroke)" d="M309 11C309 11.5523 308.552 12 308 12C307.448 12 307 11.5523 307 11L307 1C307 0.447715 307.448 1.95703e-08 308 4.37115e-08C308.552 6.78527e-08 309 0.447715 309 1L309 11Z" fill="var(--fill-0, #E2D4CF)"/>
</g>
</svg>
