<svg preserveAspectRatio="none" width="100%" height="100%" overflow="visible" style="display: block;" viewBox="0 0 12 12" fill="none" xmlns="http://www.w3.org/2000/svg">
<g id="Group">
<path id="Vector" d="M12 6C12 4.81331 11.6481 3.65328 10.9888 2.66658C10.3295 1.67989 9.39246 0.910851 8.2961 0.456725C7.19974 0.00259969 5.99335 -0.11622 4.82946 0.115291C3.66557 0.346802 2.59648 0.918247 1.75736 1.75736C0.918247 2.59648 0.346802 3.66557 0.115291 4.82946C-0.11622 5.99335 0.00259969 7.19974 0.456725 8.2961C0.910851 9.39246 1.67989 10.3295 2.66658 10.9888C3.65328 11.6481 4.81331 12 6 12C7.58984 11.9953 9.11321 11.3616 10.2374 10.2374C11.3616 9.11321 11.9953 7.58984 12 6ZM5.46975 8.03025L3.21975 5.78025C3.14812 5.71107 3.09098 5.62831 3.05168 5.5368C3.01237 5.4453 2.99168 5.34689 2.99081 5.2473C2.98995 5.14772 3.00893 5.04896 3.04664 4.95679C3.08435 4.86461 3.14004 4.78087 3.21046 4.71046C3.28088 4.64004 3.36461 4.58435 3.45679 4.54664C3.54896 4.50892 3.64772 4.48995 3.7473 4.49081C3.84689 4.49168 3.9453 4.51237 4.03681 4.55168C4.12831 4.59098 4.21107 4.64812 4.28025 4.71975L6 6.4395L7.71975 4.71975C7.78894 4.64812 7.87169 4.59098 7.9632 4.55168C8.0547 4.51237 8.15312 4.49168 8.2527 4.49081C8.35228 4.48995 8.45104 4.50892 8.54322 4.54664C8.63539 4.58435 8.71913 4.64004 8.78955 4.71046C8.85997 4.78087 8.91566 4.86461 8.95337 4.95679C8.99108 5.04896 9.01005 5.14772 9.00919 5.2473C9.00832 5.34689 8.98763 5.4453 8.94833 5.5368C8.90902 5.62831 8.85188 5.71107 8.78025 5.78025L6.53025 8.03025C6.38961 8.17085 6.19887 8.24984 6 8.24984C5.80113 8.24984 5.6104 8.17085 5.46975 8.03025Z" fill="var(--fill-0, #4A1002)"/>
</g>
</svg>
